# xmcd
#
# Track frame offsets:
#	150
#	8864
#	17259
#	26633
#	42335
#	57436
#	68229
#	96327
#	114847
#	129346
#	144666
#	162596
#	173863
#	193656
#	203187
#	221268
#	233467
#	243680
#
# Disc length: 3557 seconds
#
# Revision: 7
# Processed by: cddbd v1.5.2PL0 Copyright (c) Steve Scherf et al.
# Submitted via: EasyCDDAExtractor 10.0.2.1
#
DISCID=f60de312
DTITLE=Johnny Cash - At San Quentin (The Complete 1969 Concert)
DYEAR=1969
DGENRE=Country
TTITLE0=Big River
TTITLE1=I Still Miss Someone
TTITLE2=Wreck Of The Old 97
TTITLE3=I Walk The Line
TTITLE4=Darlin' Companion
TTITLE5=I Don't Know Where I'm Bound
TTITLE6=Starkville City Jail
TTITLE7=San Quentin (1)
TTITLE8=San Quentin (2)
TTITLE9=Wanted Man
TTITLE10=A Boy Named Sue
TTITLE11=(There'll Be) Peace In The Valley
TTITLE12=Folsom Prison Blues
TTITLE13=Ring Of Fire
TTITLE14=He Turned The Water Into Wine
TTITLE15=Daddy Sang Bass
TTITLE16=The Old Account Was Settled Long Ago
TTITLE17=Closing Medley: Fpb, Iwtl, Rof, The Rebel-Johnny Yuma
EXTD=ID3G: 2
EXTT0=
EXTT1=
EXTT2=
EXTT3=
EXTT4=
EXTT5=
EXTT6=
EXTT7=
EXTT8=
EXTT9=
EXTT10=
EXTT11=
EXTT12=
EXTT13=
EXTT14=
EXTT15=
EXTT16=
EXTT17=
PLAYORDER=
